<!DOCTYPE svg PUBLIC "-//W3C//DTD SVG 1.1//EN" "http://www.w3.org/Graphics/SVG/1.1/DTD/svg11.dtd">
<!-- Uploaded to: SVG Repo, www.svgrepo.com, Transformed by: SVG Repo Mixer Tools -->
<svg version="1.1" id="Layer_1" xmlns="http://www.w3.org/2000/svg" xmlns:xlink="http://www.w3.org/1999/xlink" viewBox="-29.7 -29.7 356.40 356.40" xml:space="preserve" width="64px" height="64px" fill="#000000">
<g id="SVGRepo_bgCarrier" stroke-width="0">
<path transform="translate(-29.7, -29.7), scale(11.1375)" d="M16,31.584993451833725C18.71759601860019,30.967618850580244,19.020114216422584,26.80453421851434,21.4433304083844,25.428124829706434C23.894750326806406,24.03569546132429,27.869266828651448,26.076035409114294,29.607074631744887,23.85604820152124C31.257357853079228,21.747870511361153,29.246958964434924,18.643610774567065,28.82367424170176,16C28.464403986820855,13.75618947300552,28.49611192535082,11.408228094173452,27.304199478516292,9.473517388105396C26.126858518780065,7.562459100608262,24.02836708589877,6.562071158173229,22.203822146480285,5.254664841175144C20.186644242252704,3.809224349401537,18.438963837419603,1.8313117790815499,16.000000000000004,1.37331580494841C13.3949926992921,0.8841396892525214,10.61144870041607,1.3669612300044678,8.287407926594224,2.641398670808192C5.942599667985478,3.9272244058543704,3.60596460916564,5.892147761321528,3.0068375815601733,8.498394180089228C2.412702725242629,11.0829242883893,5.104267311123747,13.350435475479568,5.216516759246588,15.999999999999998C5.321557311802193,18.47940391994431,2.9116480589463727,20.767189567412053,3.627276624956215,23.143395171190292C4.347682369931363,25.535463137046815,6.849574917472721,26.86670816913832,8.91321240551769,28.27467617609217C11.10428253877718,29.769588274991904,13.413444272899383,32.17259874699499,16,31.584993451833725" fill="#1e99c2" strokewidth="0"/>
</g>
<g id="SVGRepo_tracerCarrier" stroke-linecap="round" stroke-linejoin="round"/>
<g id="SVGRepo_iconCarrier"> <g> <g> <g> <g> <circle style="fill:#16bed4;" cx="148.5" cy="148.5" r="148.5"/> </g> </g> </g> <path style="fill:#366e91;" d="M188.953,67.704C160.709,78.958,142.286,90.498,139.5,116.5c-1,8-8,15-11,22c-11,27-14,55-36,77 c-7.393,6.571-3.52,19.791-6.984,29.157l52.043,51.941c3.613,0.263,7.261,0.402,10.941,0.402 c73.45,0,134.435-53.328,146.373-123.376L188.953,67.704z"/> <g> <polygon style="fill:#cbcccd;" points="214.5,132 214.5,132 198,148.5 99,148.5 82.5,132 99,99 198,99 "/> </g> <g> <rect x="123.75" y="110.994" style="fill:#345065;" width="49.5" height="5"/> </g> <g> <polygon style="fill:#f9fbfb;" points="110.402,83.296 143.134,115.011 188.953,67.704 156.221,35.989 "/> </g> <g> <path style="fill:#e0e3e6;" d="M92.5,247.5h112c5.523,0,10-4.477,10-10V132h-132v105.5C82.5,243.023,86.977,247.5,92.5,247.5z"/> </g> <g> <rect x="107.25" y="181.5" style="fill:#5D7486;" width="82.5" height="33"/> </g> </g> </g>
</svg>